<svg width="553" height="598" fill="none" xmlns="http://www.w3.org/2000/svg"><g clip-path="url(#a)"><path d="M1 9a8 8 0 0 1 8-8h544.936v24H1V9Z" fill="#fff"/><path fill="#E6E6E8" d="M1 23h551v2H1z"/><path fill-rule="evenodd" clip-rule="evenodd" d="M13.499 16a3.5 3.5 0 1 0 0-7 3.5 3.5 0 0 0 0 7Zm14.214-3.5c0 1.933-1.504 3.5-3.358 3.5s-3.357-1.567-3.357-3.5S22.5 9 24.355 9c1.854 0 3.358 1.567 3.358 3.5Zm11.998 0c0 1.933-1.503 3.5-3.357 3.5-1.854 0-3.358-1.567-3.358-3.5S34.5 9 36.354 9s3.357 1.567 3.357 3.5Z" fill="#EE634C"/><path fill-rule="evenodd" clip-rule="evenodd" d="M13.499 16a3.5 3.5 0 1 0 0-7 3.5 3.5 0 0 0 0 7Zm14.214-3.5c0 1.933-1.504 3.5-3.358 3.5s-3.357-1.567-3.357-3.5S22.5 9 24.355 9c1.854 0 3.358 1.567 3.358 3.5Zm11.998 0c0 1.933-1.503 3.5-3.357 3.5-1.854 0-3.358-1.567-3.358-3.5S34.5 9 36.354 9s3.357 1.567 3.357 3.5Z" fill="#E2E2E5"/></g><rect x="1" y="1" width="551" height="596" rx="7" stroke="#E2E2E5" stroke-width="2"/><defs><clipPath id="a"><rect width="553" height="598" rx="8" fill="#fff"/></clipPath></defs></svg>