<svg width="302" height="598" fill="none" xmlns="http://www.w3.org/2000/svg"><g filter="url(#a)" fill-rule="evenodd" clip-rule="evenodd"><path d="M1.646 80.929c-.613 0-1.106.411-1.106.919v22.072c0 .51.495.92 1.106.92H3.3V80.929H1.646ZM.54 124.61c0-.507.493-.917 1.106-.917H3.3v43.683H1.646c-.61 0-1.106-.412-1.106-.918V124.61Zm0 54.489c0-.507.493-.918 1.106-.918H3.3v43.683H1.646c-.61 0-1.106-.411-1.106-.917v-41.848Z" fill="#fff"/><path d="M1.646 80.929c-.613 0-1.106.411-1.106.919v22.072c0 .51.495.92 1.106.92H3.3V80.929H1.646ZM.54 124.61c0-.507.493-.917 1.106-.917H3.3v43.683H1.646c-.61 0-1.106-.412-1.106-.918V124.61Zm0 54.489c0-.507.493-.918 1.106-.918H3.3v43.683H1.646c-.61 0-1.106-.411-1.106-.917v-41.848Z" fill="#E2E2E5"/></g><g filter="url(#b)" fill-rule="evenodd" clip-rule="evenodd"><path d="M298.276 137.487h1.38c.762 0 1.379.513 1.379 1.149v68.976c0 .634-.619 1.148-1.379 1.148h-1.38v-71.273Z" fill="#fff"/><path d="M298.276 137.487h1.38c.762 0 1.379.513 1.379 1.149v68.976c0 .634-.619 1.148-1.379 1.148h-1.38v-71.273Z" fill="#E2E2E5"/></g><path fill-rule="evenodd" clip-rule="evenodd" d="M7.89 22.976c-4.585 9.001-4.583 20.787-4.58 44.36.011 94.645.005 180.35-.002 269.866-.005 56.73-.01 114.991-.01 178.03v15.443c0 23.568 0 35.352 4.586 44.352a42.073 42.073 0 0 0 18.387 18.387C35.271 598 47.053 598 70.618 598h160.569c23.564 0 35.346 0 44.346-4.586a42.079 42.079 0 0 0 18.387-18.387c4.585-9 4.585-20.784 4.585-44.353V67.322c0-23.566 0-35.35-4.585-44.35a42.079 42.079 0 0 0-18.387-18.386C266.533 0 254.751 0 231.187 0H70.631C47.062 0 35.278 0 26.278 4.586A42.071 42.071 0 0 0 7.89 22.976Zm13.802 34.732c0-13.3 0-19.95 2.481-25.075a24.832 24.832 0 0 1 11.528-11.528c5.126-2.482 11.776-2.482 25.075-2.482h14.026v.01a2.76 2.76 0 0 1 2.989 2.751v1.377c0 9.145 7.422 16.554 16.577 16.554h113.299c9.155 0 16.577-7.411 16.577-16.554v-4.138h.001v2.76a2.76 2.76 0 0 1 2.989-2.75v-.01h14.023c13.299 0 19.949 0 25.075 2.481a24.832 24.832 0 0 1 11.529 11.53c2.481 5.125 2.481 11.774 2.481 25.074V546.5c0 6.839 0 10.259-.669 13.083a24.832 24.832 0 0 1-18.435 18.435c-2.824.669-6.244.669-13.084.669H60.777c-13.299 0-19.948 0-25.073-2.48a24.829 24.829 0 0 1-11.532-11.532c-2.48-5.125-2.48-11.774-2.48-25.073V57.708Z" fill="#E2E2E5"/><path d="M295.057 57.477h3.446v4.599h-3.446v-4.599ZM3.299 57.477h3.453v4.599H3.299v-4.599ZM295.054 535.694h3.453v4.599h-3.453v-4.599ZM3.299 535.694h3.448v4.599H3.299v-4.599Z" fill="#fff"/><path fill-rule="evenodd" clip-rule="evenodd" d="M11.23 24.54c-4.21 8.263-4.21 19.08-4.208 40.716.013 155.83.008 311.66-.002 467.49-.002 21.634-.003 32.451 4.207 40.714a38.63 38.63 0 0 0 16.88 16.881c8.263 4.21 19.08 4.21 40.713 4.21h164.207c21.632 0 32.448 0 40.71-4.21a38.623 38.623 0 0 0 16.88-16.88c4.21-8.262 4.21-19.078 4.21-40.71V65.249c0-21.633 0-32.449-4.21-40.711a38.624 38.624 0 0 0-16.88-16.88c-8.262-4.21-19.078-4.21-40.71-4.21H68.824c-21.635 0-32.452 0-40.715 4.21a38.624 38.624 0 0 0-16.88 16.882Zm10.46 33.167c0-13.3 0-19.95 2.482-25.075A24.831 24.831 0 0 1 35.7 21.104c5.126-2.482 11.775-2.482 25.075-2.482H74.8v.01a2.76 2.76 0 0 1 2.989 2.751v1.377c0 9.145 7.422 16.554 16.578 16.554h113.298c9.155 0 16.578-7.411 16.578-16.554v-4.138 2.76a2.76 2.76 0 0 1 2.989-2.75v-.01h14.024c13.299 0 19.949 0 25.074 2.481a24.832 24.832 0 0 1 11.529 11.53c2.482 5.125 2.482 11.774 2.482 25.074v488.792c0 6.84 0 10.259-.67 13.083a24.829 24.829 0 0 1-18.435 18.435c-2.824.67-6.243.67-13.083.67H60.775c-13.298 0-19.948 0-25.072-2.481a24.829 24.829 0 0 1-11.533-11.532c-2.48-5.125-2.48-11.774-2.48-25.072V57.707Z" fill="#fff"/><path fill-rule="evenodd" clip-rule="evenodd" d="M120.554 27.588a2.759 2.759 0 1 0 0-5.517 2.759 2.759 0 0 0 0 5.517ZM184.469 29.428a4.599 4.599 0 1 0 0-9.197 4.599 4.599 0 0 0 0 9.197ZM135.728 22.99h30.808a1.839 1.839 0 0 1 0 3.679h-30.808a1.839 1.839 0 1 1 0-3.679Z" fill="#3D3D4D" fill-opacity=".15"/><defs><filter id="a" x="-.15" y="80.929" width="3.449" height="140.936" filterUnits="userSpaceOnUse" color-interpolation-filters="sRGB"><feFlood flood-opacity="0" result="BackgroundImageFix"/><feBlend in="SourceGraphic" in2="BackgroundImageFix" result="shape"/><feColorMatrix in="SourceAlpha" values="0 0 0 0 0 0 0 0 0 0 0 0 0 0 0 0 0 0 127 0" result="hardAlpha"/><feOffset dx="-.69"/><feGaussianBlur stdDeviation=".69"/><feComposite in2="hardAlpha" operator="arithmetic" k2="-1" k3="1"/><feColorMatrix values="0 0 0 0 0.239216 0 0 0 0 0.239216 0 0 0 0 0.301961 0 0 0 0.15 0"/><feBlend in2="shape" result="effect1_innerShadow_559_8515"/></filter><filter id="b" x="298.276" y="137.487" width="3.449" height="71.273" filterUnits="userSpaceOnUse" color-interpolation-filters="sRGB"><feFlood flood-opacity="0" result="BackgroundImageFix"/><feBlend in="SourceGraphic" in2="BackgroundImageFix" result="shape"/><feColorMatrix in="SourceAlpha" values="0 0 0 0 0 0 0 0 0 0 0 0 0 0 0 0 0 0 127 0" result="hardAlpha"/><feOffset dx=".69"/><feGaussianBlur stdDeviation=".69"/><feComposite in2="hardAlpha" operator="arithmetic" k2="-1" k3="1"/><feColorMatrix values="0 0 0 0 0.239216 0 0 0 0 0.239216 0 0 0 0 0.301961 0 0 0 0.2 0"/><feBlend in2="shape" result="effect1_innerShadow_559_8515"/></filter></defs></svg>