<svg width="751" height="540" viewBox="0 0 751 540" fill="none" xmlns="http://www.w3.org/2000/svg">
<path d="M694.978 539.826C739.065 539.826 765.621 494.693 739.759 462.578C739.239 461.884 738.718 461.19 738.023 460.495C722.229 442.616 698.102 436.193 676.927 426.124C671.025 423.347 665.124 420.049 660.958 414.841C655.23 407.55 653.842 397.482 655.057 388.108C659.917 349.05 702.441 325.094 709.384 286.384C714.591 257.047 696.714 227.363 672.414 211.913C648.114 196.463 618.78 192.471 590.488 191.256C562.023 190.041 533.383 191.082 505.786 184.139C498.496 182.229 491.032 179.625 485.999 173.723C480.444 167.127 479.229 157.406 480.097 148.552C482.527 124.77 536.855 42.6618 509.604 15.5816C498.843 4.9926 484.436 -0.909494 469.683 0.652825C455.103 2.73592 441.391 9.33237 428.72 16.9704C401.643 32.9408 307.221 138.658 273.374 154.628C240.049 170.251 201.689 165.738 165.066 164.87C128.442 164.176 87.8269 169.557 63.8741 198.547C55.3691 208.788 49.6413 222.676 52.4184 235.869C54.1541 244.201 59.1877 251.318 64.742 257.394C77.5862 271.281 94.249 280.829 106.399 295.41C118.549 309.992 124.971 333.08 113.515 348.356C109.003 354.258 102.58 358.077 96.3319 361.549C61.097 381.511 21.5228 401.822 6.07499 440.532C-1.7357 460.322 -1.56213 482.194 4.16571 502.678C10.4143 524.377 32.1106 539.653 57.1048 539.653H694.978V539.826Z" fill="#CAE2FF"/>
<path opacity="0.41" d="M738.024 460.669C722.229 442.789 698.102 436.366 676.927 426.298C671.025 423.52 665.124 420.222 660.958 415.014C655.23 407.724 653.842 397.655 655.057 388.281C659.917 349.224 702.441 325.268 709.384 286.557C714.591 257.22 696.714 227.536 672.414 212.087C648.114 196.637 618.78 192.644 590.488 191.429C562.023 190.214 533.383 191.256 505.786 184.312C498.496 182.403 491.032 179.799 485.999 173.897C480.444 167.3 479.229 157.579 480.097 148.726C482.527 124.944 536.855 42.8354 509.604 15.7552C500.405 6.90209 488.081 1.34718 475.584 1C492.768 5.68696 505.265 15.5816 496.239 35.7182C475.064 82.2406 278.928 236.91 416.744 252.186C554.559 267.462 326.313 390.017 430.282 398.523C509.604 404.946 346.795 497.991 265.563 540H695.151C739.239 540 765.795 494.866 739.933 462.752C739.238 461.884 738.718 461.363 738.024 460.669Z" fill="#A6CEF4"/>
<path d="M112.995 129.631C112.995 129.631 255.844 178.757 319.371 63.84C382.897 -51.0773 -6.94282 86.9276 112.995 129.631Z" fill="#CAE2FF"/>
<path opacity="0.41" d="M288.475 19.2271C298.542 25.9971 300.625 38.1485 290.037 57.2435C245.082 138.484 160.553 137.79 114.73 130.325C131.393 135.533 260.009 171.293 319.197 64.0135C336.901 32.2464 319.718 19.7478 288.475 19.2271Z" fill="#A6CEF4"/>
<path d="M65.9571 486.878C65.9571 486.878 60.7499 482.017 64.2213 463.617C67.6928 445.216 76.5449 427.336 72.2056 407.373C67.8663 387.41 33.6729 336.721 33.6729 333.423C33.4993 330.125 23.085 392.271 40.7893 416.747C58.4935 441.223 60.5764 449.729 59.7085 462.575C58.8406 475.421 59.8821 485.836 61.7913 488.787L65.9571 486.878Z" fill="#4286E8"/>
<path d="M62.6594 449.733C60.5766 457.892 59.3616 478.722 62.6594 483.583C63.0066 484.104 63.3537 483.757 63.8744 482.889C62.833 479.417 62.1387 473.515 64.048 463.446C67.5194 445.046 76.3716 427.166 72.0323 407.203C67.693 387.24 33.4995 336.551 33.4995 333.253C33.4995 333.253 38.7066 375.436 55.8902 404.252C68.5609 425.256 64.7423 441.574 62.6594 449.733Z" fill="#1D54B5"/>
<path d="M72.2055 485.665C72.2055 485.665 62.1384 460.668 79.1484 438.969C96.1583 417.27 123.409 389.496 123.93 378.386C123.93 378.386 130.873 430.811 108.829 445.566C86.7855 460.321 71.1641 462.751 74.9827 485.492L72.2055 485.665Z" fill="#4286E8"/>
<path d="M95.9849 434.977C71.3378 452.857 69.255 473.688 73.0735 483.236C73.4207 483.93 73.9414 484.451 74.6357 484.625C71.3378 462.578 86.7856 460.148 108.482 445.393C130.526 430.638 123.583 378.213 123.583 378.213C123.583 378.213 120.806 417.098 95.9849 434.977Z" fill="#1D54B5"/>
<path d="M55.7157 486.187C55.7157 486.187 59.0135 472.994 57.2778 458.586C55.5421 444.351 40.615 436.193 26.5558 421.09C19.4394 413.279 17.1829 372.138 21.6958 368.319C21.6958 368.319 -2.95129 398.176 0.867269 420.049C4.68583 441.921 44.9543 456.156 48.5993 466.745C52.2443 477.334 52.0707 486.187 52.0707 486.187H55.7157Z" fill="#4286E8"/>
<path d="M13.3653 380.124C5.20742 402.17 13.5388 428.903 40.6159 445.567C60.5765 457.719 54.1544 483.237 54.1544 483.237L57.4523 473.168C57.7994 468.829 57.7994 463.795 57.1051 458.587C55.3694 444.352 40.4423 436.194 26.3831 421.091C19.4402 413.627 17.1838 375.09 21.0024 368.84C20.1345 370.403 16.8367 374.395 13.3653 380.124Z" fill="#1D54B5"/>
<path d="M21.1758 368.839C21.5224 368.492 21.6956 368.319 21.6956 368.319C21.5224 368.492 21.3491 368.666 21.1758 368.839Z" fill="#49B4D6"/>
<path d="M77.4126 484.451C77.4126 484.451 83.1404 462.926 97.5468 460.148C111.78 457.197 128.269 436.193 129.137 432.026C128.963 432.026 126.533 471.952 77.4126 484.451Z" fill="#4286E8"/>
<path d="M96.6789 467.265C88.0004 471.605 84.3554 477.507 82.9668 482.889C126.88 468.828 129.137 432.026 129.137 432.026C128.963 432.894 128.095 434.283 126.88 436.193C122.541 443.657 112.127 459.454 96.6789 467.265Z" fill="#1D54B5"/>
<path d="M108.309 476.639H33.4995L42.3516 532.536C43.0459 536.702 46.6909 539.827 51.0302 539.827H90.7779C95.1172 539.827 98.7622 536.702 99.4565 532.536L108.309 476.639Z" fill="#F95858"/>
<path d="M106.746 485.84L108.309 476.639H33.4995L34.8881 485.84H106.746Z" fill="#E53838"/>
<path d="M90.0834 476.639L81.2313 532.536C80.537 536.702 76.892 539.827 72.5527 539.827H90.6041C94.9434 539.827 98.5884 536.702 99.2826 532.536L108.135 476.639H90.0834Z" fill="#E53838"/>
<path d="M402.858 412.584H387.236V540H402.858V412.584Z" fill="white"/>
<path d="M402.684 412.584H396.609V540H402.684V412.584Z" fill="#E8F2FC"/>
<path d="M439.655 529.585H354.605C351.654 529.585 349.398 531.841 349.398 534.792C349.398 537.743 351.654 540 354.605 540H439.655C442.606 540 444.862 537.743 444.862 534.792C444.862 531.841 442.606 529.585 439.655 529.585Z" fill="white"/>
<path d="M439.655 529.585H354.605C352.696 529.585 351.134 530.626 350.092 532.188H423.86C426.811 532.188 429.067 534.445 429.067 537.396C429.067 538.438 428.72 539.306 428.373 540H439.828C442.779 540 445.036 537.743 445.036 534.792C444.862 531.841 442.606 529.585 439.655 529.585Z" fill="#E8F2FC"/>
<path d="M402.858 412.584H387.236V423.868H402.858V412.584Z" fill="#E8F2FC"/>
<path d="M483.395 235.001C481.139 233.959 478.708 233.438 476.105 233.438H388.452C379.947 233.438 372.483 239.514 370.921 248.02L343.497 391.58C342.976 393.836 343.15 396.267 343.497 398.35V398.523H319.197C315.205 398.523 311.907 401.822 311.907 405.814C311.907 409.807 315.205 413.105 319.197 413.105H397.998V412.931H448.681C457.186 412.931 464.649 406.856 466.211 398.35L493.636 254.79C495.371 246.284 490.685 238.299 483.395 235.001Z" fill="#FF9933"/>
<path d="M493.809 254.79L466.385 398.35C464.823 406.682 457.359 412.758 448.854 412.758H397.998V412.931H319.197C315.205 412.931 311.907 409.633 311.907 405.641C311.907 401.648 315.205 398.35 319.197 398.35H343.497V398.176C343.67 398.176 344.017 398.176 344.191 398.176H431.844C443.647 398.176 453.714 389.844 455.971 378.213L483.395 234.827C490.685 238.299 495.371 246.284 493.809 254.79Z" fill="#E8F2FC"/>
<path d="M456.144 377.692L455.97 378.56C453.714 390.191 443.647 398.523 431.844 398.523H344.191C344.017 398.523 343.67 398.523 343.497 398.523V398.697H319.197C315.552 398.697 312.601 401.301 312.08 404.773V385.157V384.983C311.56 381.164 314.857 377.692 318.676 377.692H456.144Z" fill="white"/>
<path d="M483.395 235.001L455.971 378.387C453.714 390.017 443.647 398.35 431.844 398.35H344.191C344.017 398.35 343.67 398.35 343.497 398.35C343.149 396.267 342.976 393.836 343.497 391.58L370.921 248.02C372.483 239.688 379.947 233.438 388.452 233.438H476.105C478.882 233.612 481.312 234.133 483.395 235.001Z" fill="white"/>
<path d="M275.63 200.63H126.36C122.888 200.63 120.285 203.754 120.805 207.226L133.649 294.89C133.997 297.667 136.427 299.75 139.204 299.75H288.475C291.946 299.75 294.55 296.625 294.029 293.154L281.185 205.49C281.011 202.713 278.581 200.63 275.63 200.63Z" fill="#1D54B5"/>
<path d="M254.802 200.63H126.533C123.061 200.63 120.458 203.754 120.979 207.226L126.706 245.937C140.419 252.013 156.04 255.311 172.529 255.311C215.228 255.311 240.395 232.57 254.802 200.63Z" fill="#3070CE"/>
<path d="M207.938 267.636H188.845H179.646C177.216 267.636 175.307 269.719 175.654 272.149L184.159 330.996C184.159 331.17 184.159 331.344 184.159 331.517L184.506 333.774C184.853 335.683 186.415 337.246 188.498 337.246H197.697H216.443L207.938 267.636Z" fill="#4286E8"/>
<path d="M249.248 333.08C249.248 330.823 247.338 329.087 245.255 329.087H223.906C220.782 329.087 218.005 326.83 217.658 323.706L211.409 277.878H215.054C217.484 277.878 219.393 275.794 219.046 273.364L218.699 271.108C218.352 269.198 216.79 267.636 214.707 267.636H207.243C203.946 267.636 201.168 270.587 201.689 273.885L209.5 332.038C209.847 334.989 212.45 337.072 215.228 337.072H245.082C247.512 337.246 249.248 335.336 249.248 333.08Z" fill="#1D54B5"/>
<path d="M231.196 289.682C232.634 289.682 233.8 288.516 233.8 287.078C233.8 285.64 232.634 284.474 231.196 284.474C229.758 284.474 228.593 285.64 228.593 287.078C228.593 288.516 229.758 289.682 231.196 289.682Z" fill="#4286E8"/>
<path d="M244.909 289.682C246.347 289.682 247.512 288.516 247.512 287.078C247.512 285.64 246.347 284.474 244.909 284.474C243.471 284.474 242.305 285.64 242.305 287.078C242.305 288.516 243.471 289.682 244.909 289.682Z" fill="#4286E8"/>
<path d="M257.059 289.682C258.497 289.682 259.662 288.516 259.662 287.078C259.662 285.64 258.497 284.474 257.059 284.474C255.621 284.474 254.455 285.64 254.455 287.078C254.455 288.516 255.621 289.682 257.059 289.682Z" fill="#4286E8"/>
<path d="M272.853 241.25L280.664 294.89C281.011 297.667 283.441 299.75 286.218 299.75H288.475C291.946 299.75 294.55 296.625 294.029 293.154L281.185 205.49C280.838 202.713 278.408 200.63 275.631 200.63H273.374C269.903 200.63 267.299 203.754 267.82 207.226L272.853 241.25Z" fill="#4286E8"/>
<path d="M216.443 210.177H164.371C163.156 210.177 162.115 211.392 162.289 212.607L162.636 214.69C162.809 215.732 163.677 216.426 164.719 216.426H216.79C218.005 216.426 219.046 215.211 218.873 213.996L218.526 211.913C218.178 210.871 217.311 210.177 216.443 210.177Z" fill="#4286E8"/>
<path d="M427.853 236.91C426.117 224.238 407.545 230.14 414.661 218.336C421.084 207.4 413.62 202.539 404.768 200.803C393.486 198.547 399.908 194.207 394.354 183.618C387.411 170.251 376.476 174.244 376.476 174.244C376.476 174.244 362.937 166.953 349.052 178.584C334.472 190.909 337.596 201.671 345.407 216.6C349.399 224.064 344.539 230.834 341.067 244.722C336.902 261.386 357.383 294.716 401.297 272.149C418.48 263.296 428.721 243.68 427.853 236.91Z" fill="#13448C"/>
<path d="M367.276 240.382C367.276 240.382 360.507 241.076 353.738 247.846C349.225 252.36 326.661 297.146 326.661 297.146L306.006 233.786L290.905 235.001C290.905 235.001 307.915 337.072 321.28 337.246C333.777 337.419 373.699 271.455 373.699 271.455L367.276 240.382Z" fill="#F95858"/>
<path d="M410.148 267.115L423.34 316.762L344.886 323.185L345.233 337.419C345.233 337.419 435.663 337.767 452.847 337.593C464.129 337.419 442.78 247.499 429.241 237.257C418.48 229.099 388.626 231.355 388.626 231.355L367.45 240.382C367.45 240.382 342.803 264.858 357.556 287.772C369.186 305.826 354.432 341.065 354.432 341.065L404.594 344.016L449.375 344.363L410.148 267.115Z" fill="#F95858"/>
<path d="M359.986 321.97L362.764 321.449C365.541 309.645 365.888 293.674 359.813 285.863C347.663 270.587 360.16 248.367 367.276 240.382C366.235 241.597 342.977 265.205 357.383 287.772C364.152 298.535 362.59 312.422 359.986 321.97Z" fill="#E54848"/>
<path d="M345.059 326.483C336.728 326.83 327.876 329.781 323.71 334.642C322.842 335.683 323.536 337.419 324.925 337.419H345.059V326.483Z" fill="#FFB19E"/>
<path d="M388.626 214.69V231.529L373.525 248.714L373.352 248.541L369.186 239.861V230.487C361.722 229.446 355.127 223.717 353.391 215.558L351.308 203.928C351.308 203.928 362.59 202.713 371.442 193.686C371.442 193.686 374.046 198.547 378.038 202.366C380.815 205.143 384.634 205.837 386.196 207.4C388.105 209.309 388.799 211.913 388.626 214.69Z" fill="#FFB19E"/>
<path d="M384.46 200.109C384.46 200.109 383.939 192.992 381.162 187.09C378.038 180.146 373.699 171.987 364.847 171.987C364.847 171.987 386.717 168.515 390.362 198.894L384.46 200.109Z" fill="#FF4751"/>
<path d="M388.877 216.706C394.309 216.12 398.204 210.931 397.577 205.117C396.95 199.303 392.037 195.064 386.605 195.651C381.172 196.237 377.277 201.426 377.905 207.24C378.532 213.054 383.444 217.293 388.877 216.706Z" fill="#FF4751"/>
<path d="M390.709 215.732C385.502 216.253 380.815 212.26 380.121 206.532C379.6 201.324 382.725 196.637 387.237 195.595C386.89 195.595 386.717 195.595 386.37 195.595C380.989 196.116 377.17 201.324 377.691 207.226C378.385 213.128 383.245 217.294 388.626 216.774C390.362 216.6 391.75 215.906 393.139 215.038C392.445 215.385 391.577 215.732 390.709 215.732Z" fill="#CC3241"/>
<path d="M389.524 211.191C392.097 210.913 393.933 208.37 393.624 205.511C393.316 202.651 390.98 200.558 388.406 200.836C385.833 201.114 383.997 203.657 384.306 206.517C384.614 209.376 386.951 211.469 389.524 211.191Z" fill="#CC3241"/>
<path d="M383.592 223.196C382.898 224.064 379.427 228.404 376.476 230.834C375.261 231.876 374.74 233.265 374.74 234.653L373.352 248.367L369.186 239.688V230.314L369.36 230.14C369.36 230.314 378.906 228.751 383.592 223.196Z" fill="#F48F7A"/>
<path d="M377.17 222.502L376.997 221.461C382.551 220.593 386.543 213.128 386.543 213.128L387.411 213.649C387.237 213.996 383.072 221.461 377.17 222.502Z" fill="#FF4751"/>
<path d="M378.212 221.981C378.038 221.113 376.65 220.593 375.087 220.94C373.525 221.287 372.31 222.155 372.484 223.023C372.657 223.891 374.046 224.412 375.608 224.064C377.17 223.891 378.385 222.849 378.212 221.981Z" fill="#FF4751"/>
<path d="M304.791 234.133C304.791 234.133 306.874 216.6 304.964 215.906C303.055 215.211 301.146 222.676 301.146 222.676C301.146 222.676 292.988 206.879 287.434 208.615C281.879 210.351 292.12 234.653 292.12 234.653L304.791 234.133Z" fill="#FFB19E"/>
<path d="M359.986 321.97L421.778 316.762C423.86 316.588 425.423 314.679 424.902 312.596C422.645 300.965 416.05 267.983 415.703 268.851C415.182 270.066 421.951 307.909 413.967 311.728C408.586 314.332 359.986 321.97 359.986 321.97Z" fill="#E54848"/>
<path d="M401.991 504.761C401.47 504.935 401.123 505.108 400.776 505.629C396.784 511.184 393.312 512.399 386.37 513.267C386.022 513.267 385.502 513.441 385.155 513.614C385.675 512.746 387.932 509.101 386.37 505.629C384.634 501.81 382.377 499.032 382.377 499.032L392.445 492.957C392.618 493.13 398.867 500.248 401.991 504.761Z" fill="#FFB19E"/>
<path d="M409.454 517.607C407.719 519.343 378.906 534.966 372.137 538.958C371.269 539.479 369.533 540.347 369.36 539.479C368.839 538.09 381.336 513.961 386.543 513.267C393.486 512.399 396.957 511.01 400.776 505.629C401.644 504.414 403.379 504.414 404.074 505.629C406.851 509.795 410.843 516.218 409.454 517.607Z" fill="#13448C"/>
<path d="M354.606 340.891C354.606 340.891 284.83 373.179 282.921 395.746C281.359 415.709 384.113 507.018 384.113 507.018L400.428 500.248L344.192 409.46C344.192 409.46 403.9 380.123 418.48 344.71L354.606 340.891Z" fill="#13448C"/>
<path d="M309.998 389.844C305.312 399.044 301.84 411.716 299.41 423.173C307.394 432.547 317.288 443.136 327.529 453.552C319.892 423.52 313.122 393.316 315.552 388.976C320.065 380.817 349.572 358.771 370.574 348.008C370.574 348.008 321.107 368.666 309.998 389.844Z" fill="#09326D"/>
<path d="M360.854 523.509C360.333 523.335 359.986 523.335 359.465 523.682C353.39 526.46 349.745 525.939 343.15 523.335C342.803 523.162 342.282 523.162 341.761 523.162C342.629 522.641 346.448 520.558 346.795 516.912C347.142 512.746 346.621 509.274 346.621 509.274L358.424 508.927C358.424 508.754 360.333 518.128 360.854 523.509Z" fill="#FFB19E"/>
<path d="M361.201 539.306C358.771 540 324.925 539.479 316.94 539.653C315.899 539.653 315.205 538.785 315.378 537.917C315.725 536.355 338.289 521.599 343.149 523.509C349.572 526.113 353.217 526.633 359.465 523.856C360.68 523.335 362.242 524.03 362.416 525.592C362.763 530.279 363.11 538.785 361.201 539.306Z" fill="#13448C"/>
<path d="M448.855 344.363C448.855 344.363 454.756 383.942 419.347 393.836C391.403 401.648 361.375 405.814 361.375 405.814L363.458 518.128H344.886C344.886 518.128 310.692 398.176 315.552 389.149C321.106 379.081 364.499 348.182 383.245 342.627L448.855 344.363Z" fill="#1D54B5"/>
<path opacity="0.13" d="M361.375 405.814C361.375 405.814 391.402 401.822 419.347 393.836C454.756 383.768 448.854 344.363 448.854 344.363L426.984 343.842C420.389 358.077 399.04 393.142 346.968 396.961L358.771 518.128H363.631L361.375 405.814Z" fill="#0E367C"/>
<path d="M130.873 540L123.062 539.826L155.52 344.884H163.33L130.873 540Z" fill="white"/>
<path d="M452.153 539.826L460.484 540L420.215 342.627L412.058 342.801L452.153 539.826Z" fill="white"/>
<path d="M161.074 355.646L163.33 344.884H155.52L153.263 355.646H161.074Z" fill="#E4EDF7"/>
<path d="M422.819 355.646L420.216 342.627L412.058 342.801L414.661 355.646H422.819Z" fill="#E4EDF7"/>
<path d="M467.6 337.419H115.772C113.515 337.419 111.78 339.155 111.78 341.412C111.78 343.669 113.515 345.404 115.772 345.404H467.6C469.857 345.404 471.592 343.669 471.592 341.412C471.419 339.155 469.683 337.419 467.6 337.419Z" fill="white"/>
<path d="M328.57 164.523L319.371 110.883C319.023 108.453 316.941 106.543 314.337 106.543L228.072 107.411C224.948 107.411 222.692 110.189 223.039 113.14L231.196 160.183L235.362 186.916C235.536 188.305 237.445 188.652 238.139 187.61L249.074 171.119L323.536 170.251C326.66 170.251 328.917 167.474 328.57 164.523Z" fill="#1D54B5"/>
<path d="M297.848 123.208H247.859C246.991 123.208 246.297 123.902 246.471 124.77L246.644 126.159C246.818 126.853 247.338 127.374 248.033 127.374H298.021C298.889 127.374 299.583 126.68 299.41 125.812L299.236 124.423C299.063 123.729 298.542 123.208 297.848 123.208Z" fill="white"/>
<path d="M299.583 136.401H249.595C248.727 136.401 248.033 137.095 248.206 137.963L248.38 139.352C248.554 140.046 249.074 140.567 249.769 140.567H299.757C300.625 140.567 301.319 139.873 301.146 139.005L300.972 137.616C300.798 136.922 300.278 136.401 299.583 136.401Z" fill="white"/>
<path d="M287.607 150.809H264.522C263.654 150.809 262.96 151.503 263.133 152.371L263.307 153.76C263.48 154.454 264.001 154.975 264.695 154.975H287.78C288.648 154.975 289.342 154.281 289.169 153.413L288.995 152.024C288.995 151.33 288.301 150.809 287.607 150.809Z" fill="white"/>
<path d="M678.836 79.4631L690.291 28.9482C690.812 26.6915 689.597 24.9556 687.167 24.9556L605.762 25.8235C602.812 25.8235 599.687 28.4274 598.819 31.2048L588.752 75.4705L582.504 100.641C582.157 102.03 583.719 102.377 584.934 101.162L601.423 85.5388L671.719 84.8445C674.844 84.8445 678.141 82.2406 678.836 79.4631Z" fill="#1D54B5"/>
<path d="M664.256 41.2731H619.648C618.954 41.2731 618.086 41.9675 617.912 42.6618L617.565 44.0506C617.392 44.5713 617.739 45.0921 618.433 45.0921H663.041C663.735 45.0921 664.603 44.3977 664.776 43.7034L665.124 42.3146C665.297 41.7939 664.95 41.2731 664.256 41.2731Z" fill="white"/>
<path d="M661.132 53.0773H616.35C615.656 53.0773 614.788 53.7717 614.615 54.466L614.267 55.8548C614.094 56.3755 614.441 56.8963 615.135 56.8963H659.917C660.611 56.8963 661.479 56.2019 661.652 55.5076L661.999 54.1188C661.999 53.5981 661.652 53.0773 661.132 53.0773Z" fill="white"/>
<path d="M645.337 66.0966H624.682C623.987 66.0966 623.12 66.791 622.946 67.4853L622.599 68.8741C622.425 69.3948 622.772 69.9156 623.467 69.9156H644.122C644.816 69.9156 645.684 69.2213 645.857 68.5269L646.204 67.1382C646.204 66.4438 645.857 66.0966 645.337 66.0966Z" fill="white"/>
<path d="M214.707 164.176C215.749 165.043 217.484 164.175 217.311 162.787L206.202 99.0789C205.855 96.9958 204.119 95.4335 202.036 95.4335L128.789 96.3015C126.186 96.3015 124.103 98.5581 124.624 101.162L132.434 146.643C132.782 148.726 134.517 150.288 136.6 150.288L193.011 149.594C195.614 149.594 198.218 150.462 200.301 152.198L214.707 164.176Z" fill="#F95858"/>
<path d="M191.969 114.355H141.981C141.113 114.355 140.419 115.049 140.592 115.917L140.766 117.306C140.939 118 141.46 118.521 142.154 118.521H192.143C193.011 118.521 193.705 117.827 193.531 116.959L193.358 115.57C193.184 114.876 192.663 114.355 191.969 114.355Z" fill="white"/>
<path d="M193.705 127.548H143.717C142.849 127.548 142.154 128.242 142.328 129.11L142.502 130.499C142.675 131.193 143.196 131.714 143.89 131.714H193.879C194.746 131.714 195.441 131.02 195.267 130.152L195.094 128.763C194.92 128.069 194.399 127.548 193.705 127.548Z" fill="white"/>
<path d="M600.555 270.587L600.208 280.655L594.133 513.614H570.007L548.658 313.985L521.581 381.338L540.153 513.614H531.301L516.547 513.788C516.547 513.788 472.46 381.685 473.328 373.179C474.196 364.673 507.348 271.281 507.348 271.281L600.555 270.587Z" fill="#1D54B5"/>
<path d="M602.986 126.333L557.684 120.083L556.642 119.91L534.946 120.083H534.772L508.91 126.68V271.802H602.986V126.333Z" fill="#F95858"/>
<path d="M680.398 154.628C680.398 154.628 683.696 134.144 686.126 133.971C688.556 133.797 688.209 142.997 688.209 142.997C688.209 142.997 702.616 127.721 708.343 131.54C714.071 135.359 694.631 159.489 694.631 159.489L680.398 154.628Z" fill="#FFB19E"/>
<path d="M535.119 120.256L537.549 280.654H503.703L501.273 236.736L456.318 236.041C451.632 236.215 448.16 231.702 449.549 227.188L471.94 149.42C474.543 140.393 481.833 133.276 491.032 131.019L534.946 120.083L535.119 120.256Z" fill="#4286E8"/>
<path d="M695.846 160.009L652.279 249.409C649.502 254.443 642.386 254.616 639.435 249.582L605.415 193.165L603.68 280.481H567.577L557.51 120.083H557.683L603.68 126.333C612.358 127.721 619.822 133.103 623.64 141.088L646.899 188.999C647.42 190.214 649.155 190.388 649.85 189.346L679.357 153.934L695.846 160.009Z" fill="#4286E8"/>
<path d="M501.1 237.084H545.187L545.534 214.517L501.447 213.996L501.1 237.084Z" fill="#4286E8"/>
<path d="M545.36 230.834C557.857 230.314 571.049 225.974 577.297 218.683C578.686 217.121 577.471 214.517 575.388 214.517H545.187L545.36 230.834Z" fill="#FFB19E"/>
<path opacity="0.41" d="M528.176 238.125L528.35 237.431L501.273 237.084L503.703 280.655L511.687 244.548L528.176 238.125Z" fill="#13448C"/>
<path opacity="0.32" d="M600.382 280.655L594.307 513.614H592.571L576.429 280.655H600.382Z" fill="#0E367C"/>
<path opacity="0.41" d="M545.534 214.343C545.534 214.343 485.652 218.683 486.172 217.468L496.587 181.708L496.76 182.229L497.802 207.226C497.802 210.698 542.409 213.475 545.534 214.343Z" fill="#13448C"/>
<path opacity="0.41" d="M652.453 249.409L696.02 160.009H695.846C691.16 160.009 650.718 244.722 646.552 246.805C641.692 249.235 605.763 193.339 605.763 193.339L639.783 249.756C642.56 254.616 649.676 254.443 652.453 249.409Z" fill="#13448C"/>
<path d="M519.325 513.614C514.117 524.203 489.47 529.585 489.47 529.585C489.47 529.585 487.735 532.709 490.512 536.702C493.289 540.694 519.324 538.264 522.622 537.57C525.92 536.875 528.177 534.272 528.177 534.272C528.177 534.272 530.433 536.702 531.648 537.223C532.863 537.743 539.459 536.528 539.459 536.528C541.021 532.362 539.459 516.218 538.938 513.614H519.325Z" fill="#13448C"/>
<path d="M592.051 513.614C597.258 524.203 621.905 529.585 621.905 529.585C621.905 529.585 623.641 532.709 620.864 536.702C618.087 540.694 592.051 538.264 588.753 537.57C585.455 536.875 583.199 534.272 583.199 534.272C583.199 534.272 580.942 536.702 579.727 537.223C578.512 537.743 571.917 536.528 571.917 536.528C570.355 532.362 571.917 516.218 572.437 513.614H592.051Z" fill="#13448C"/>
<path opacity="0.32" d="M521.755 381.338L540.327 513.614H531.475C525.92 485.145 506.828 389.844 507.522 383.942C508.39 376.824 547.79 316.068 549.005 313.984L521.755 381.338Z" fill="#0E367C"/>
<path fill-rule="evenodd" clip-rule="evenodd" d="M557.51 120.257C554.212 122.861 546.228 128.416 546.228 128.416C546.228 128.416 538.244 122.861 534.772 120.257V101.162H557.337V120.257H557.51Z" fill="#FFB19E"/>
<path fill-rule="evenodd" clip-rule="evenodd" d="M557.684 101.162V109.147C551.088 114.528 541.715 114.528 535.12 109.321V101.162H557.684Z" fill="#FFB19E"/>
<path fill-rule="evenodd" clip-rule="evenodd" d="M521.234 88.8371H572.09L572.958 74.6026C584.24 69.9156 575.735 43.009 575.735 43.009C576.429 49.4319 558.899 49.7791 551.956 48.5639C545.013 47.5224 540.327 50.2999 540.327 50.2999C540.327 50.2999 518.283 45.6129 519.498 76.5121C519.672 81.1991 520.192 85.1916 521.234 88.8371Z" fill="#13448C"/>
<path fill-rule="evenodd" clip-rule="evenodd" d="M566.709 74.6026V87.2747C566.709 92.656 564.453 97.8638 560.46 101.683C559.766 102.204 559.245 102.898 558.551 103.419C551.782 109.842 541.021 109.842 534.078 103.419L532.168 101.683C528.176 98.0374 525.92 92.8296 525.92 87.2747V77.5536C525.92 77.5536 531.821 73.561 539.979 64.0135C539.806 64.0135 548.831 72.6931 566.709 74.6026Z" fill="#FFB19E"/>
<path fill-rule="evenodd" clip-rule="evenodd" d="M557.683 104.287V109.147C551.088 114.529 541.715 114.529 535.119 109.321V104.46C541.541 109.842 551.088 109.842 557.683 104.287Z" fill="#F48F7A"/>
<path fill-rule="evenodd" clip-rule="evenodd" d="M530.954 90.2258C534.946 83.9765 528.176 77.2065 521.928 81.1991C521.407 81.5462 521.06 81.8934 520.713 82.4142C516.721 88.6635 523.49 95.4335 529.739 91.4409C530.259 91.2673 530.606 90.7465 530.954 90.2258Z" fill="#FFB19E"/>
<path fill-rule="evenodd" clip-rule="evenodd" d="M571.569 90.2258C575.388 83.9765 569.139 77.5536 563.064 80.8519C562.196 81.3726 561.502 82.067 561.155 82.7614C557.857 89.0106 564.279 95.2599 570.528 91.2673C570.701 91.2673 571.222 90.7466 571.569 90.2258Z" fill="#FFB19E"/>
<path d="M571.396 76.8593H569.313V70.0892C569.313 58.9794 559.246 49.9527 546.749 49.9527H545.881C533.384 49.9527 523.317 58.9794 523.317 70.0892V76.8593H521.407V70.0892C521.407 57.9379 532.342 48.0432 545.881 48.0432H546.749C560.287 48.0432 571.222 57.9379 571.222 70.0892V76.8593H571.396Z" fill="#A31919"/>
<path d="M569.66 73.2139C566.709 73.2139 564.279 75.6441 564.279 78.5952V88.3163C564.279 91.2673 566.709 93.6976 569.66 93.6976C572.611 93.6976 575.041 91.2673 575.041 88.3163V78.5952C575.214 75.6441 572.784 73.2139 569.66 73.2139Z" fill="#F95858"/>
<path d="M569.66 73.2139C569.139 73.2139 568.618 73.3875 568.098 73.5611C570.354 74.2554 571.916 76.3385 571.916 78.7688V88.4899C571.916 90.9202 570.354 93.0032 568.098 93.6976C568.618 93.8712 569.139 94.0448 569.66 94.0448C572.611 94.0448 575.041 91.6145 575.041 88.6635V78.9424C575.214 75.6441 572.784 73.2139 569.66 73.2139Z" fill="#CC3241"/>
<path d="M522.969 73.2139C520.019 73.2139 517.589 75.6441 517.589 78.5952V88.3163C517.589 91.2673 520.019 93.6976 522.969 93.6976C525.92 93.6976 528.35 91.2673 528.35 88.3163V78.5952C528.35 75.6441 525.92 73.2139 522.969 73.2139Z" fill="#F95858"/>
<path d="M522.969 73.2139C522.449 73.2139 521.928 73.3875 521.407 73.5611C523.664 74.2554 525.226 76.3385 525.226 78.7688V88.4899C525.226 90.9202 523.664 93.0032 521.407 93.6976C521.928 93.8712 522.449 94.0448 522.969 94.0448C525.92 94.0448 528.35 91.6145 528.35 88.6635V78.9424C528.35 75.6441 525.92 73.2139 522.969 73.2139Z" fill="#CC3241"/>
<path d="M555.08 99.9469V98.9053C561.329 98.5581 566.709 90.7466 566.709 90.7466L567.577 91.4409C567.23 91.6145 561.676 99.5997 555.08 99.9469Z" fill="#FF4751"/>
<path d="M556.121 99.4261C556.121 98.3845 554.559 97.6902 552.824 97.8638C551.088 98.0374 549.699 98.9053 549.699 99.9469C549.699 100.988 551.261 101.683 552.997 101.509C554.906 101.509 556.295 100.468 556.121 99.4261Z" fill="#FF4751"/>
<path d="M581.983 148.205H503.009C498.669 148.205 495.372 151.851 495.545 156.364L497.628 207.226C497.802 211.392 501.273 214.69 505.265 214.69H579.727C583.719 214.69 587.19 211.392 587.364 207.226L589.447 156.364C589.62 152.024 586.322 148.205 581.983 148.205Z" fill="#13448C"/>
<path d="M581.983 148.205H503.009C500.926 148.205 498.843 149.073 497.628 150.635C498.322 150.462 499.016 150.288 499.711 150.288H578.685C583.025 150.288 586.323 153.934 586.149 158.447L584.066 209.309C584.066 211.219 583.198 212.955 581.983 214.17C585.108 213.302 587.364 210.524 587.538 207.052L589.62 156.19C589.62 152.024 586.323 148.205 581.983 148.205Z" fill="#1D54B5"/>
<path d="M541.888 191.777C546.873 191.777 550.914 187.735 550.914 182.75C550.914 177.764 546.873 173.723 541.888 173.723C536.904 173.723 532.863 177.764 532.863 182.75C532.863 187.735 536.904 191.777 541.888 191.777Z" fill="#4286E8"/>
</svg>
